<svg width="396" height="396" xmlns="http://www.w3.org/2000/svg" xmlns:xlink="http://www.w3.org/1999/xlink" overflow="hidden"><defs><clipPath id="clip0"><rect x="0" y="0" width="396" height="396"/></clipPath></defs><g clip-path="url(#clip0)"><path d="M389.659 198C389.659 303.85 303.85 389.659 198 389.659 92.1498 389.659 6.34118 303.85 6.34118 198 6.34118 92.1498 92.1498 6.34118 198 6.34118 303.85 6.34118 389.659 92.1498 389.659 198Z" stroke="#FFFFFF" stroke-width="0.647059" stroke-miterlimit="10"/><path d="M355.3 146.559C354.2 131.159 305.541 108.059 276.1 92.9177 254.359 81.9177 241.482 98.1588 236.241 107.476 224.659 103.335 211.782 100.876 198.259 100.876 184.735 100.876 171.859 103.335 160.018 107.476 154.776 98.1588 141.835 81.9177 120.159 92.9177 90.7177 107.8 42.0588 131.159 40.9588 146.559 39.8588 161.959 56.3588 211.977 56.3588 219.159 56.3588 226.341 36.3 249.7 56.3588 248.859 73.1177 248.018 103.4 240.9 114.918 222.2 117.635 232.359 120.159 243.1 120.159 252.741 120.159 282.7 134.2 306.9 151.476 306.9 158.918 306.9 169.076 301.4 178.718 292.859 184.476 295.318 191.076 296.676 198 296.676 204.924 296.676 211.459 295.318 217.282 292.859 226.665 301.4 237.082 306.9 244.524 306.9 261.865 306.9 275.906 282.7 275.906 252.741 275.906 243.359 278.365 232.682 281.147 222.782 292.988 241.224 322.947 248.082 339.447 249.182 359.506 250.282 339.447 226.924 339.447 219.482 339.382 212.041 356.4 161.7 355.3 146.559Z" stroke="#000000" stroke-width="3.88235" stroke-miterlimit="10" fill="#FFFFFF"/><path d="M221.359 292.859C221.359 292.859 211.2 275.841 203.241 269.5 200.2 267.3 197.741 246.982 197.741 246.982" stroke="#000000" stroke-width="4.52941" stroke-linecap="round" stroke-miterlimit="10" fill="none"/><path d="M174.641 292.859C174.641 292.859 184.8 275.841 192.759 269.5 195.8 267.3 198.259 246.982 198.259 246.982" stroke="#000000" stroke-width="4.52941" stroke-linecap="round" stroke-miterlimit="10" fill="none"/><path d="M280.5 221.1C280.5 221.1 272.218 205.7 272.8 195.8 273.382 185.641 270.082 139.441 262.059 119.641 254.1 99.8412 245.3 111.359 245.3 111.359" stroke="#000000" stroke-width="4.52941" stroke-linecap="round" stroke-miterlimit="10" fill="none"/><path d="M115.5 221.1C115.5 221.1 123.782 205.7 123.2 195.8 122.618 185.9 125.918 139.441 133.941 119.641 141.9 99.8412 150.7 111.359 150.7 111.359" stroke="#000000" stroke-width="4.52941" stroke-linecap="round" stroke-miterlimit="10" fill="none"/><path d="M232.359 228.282C232.359 237.395 216.976 244.782 198 244.782 179.024 244.782 163.641 237.395 163.641 228.282 163.641 219.17 179.024 211.782 198 211.782 216.976 211.782 232.359 219.17 232.359 228.282Z"/><path d="M248.6 190.882C248.6 196.064 246.022 200.265 242.841 200.265 239.661 200.265 237.082 196.064 237.082 190.882 237.082 185.701 239.661 181.5 242.841 181.5 246.022 181.5 248.6 185.701 248.6 190.882Z" stroke="#000000" stroke-width="3.23529" stroke-miterlimit="10"/><path d="M158.918 190.882C158.918 196.064 156.339 200.265 153.159 200.265 149.978 200.265 147.4 196.064 147.4 190.882 147.4 185.701 149.978 181.5 153.159 181.5 156.339 181.5 158.918 185.701 158.918 190.882Z" stroke="#000000" stroke-width="3.23529" stroke-miterlimit="10"/></g></svg>